<?xml version="1.0" encoding="UTF-8" standalone="no"?>
<svg width="99px" height="76px" viewBox="0 0 99 76" version="1.1" xmlns="http://www.w3.org/2000/svg" xmlns:xlink="http://www.w3.org/1999/xlink" xmlns:sketch="http://www.bohemiancoding.com/sketch/ns">
    <!-- Generator: Sketch 3.1 (8751) - http://www.bohemiancoding.com/sketch -->
    <title>Imported Layers</title>
    <desc>Created with Sketch.</desc>
    <defs></defs>
    <g id="Page-1" stroke="none" stroke-width="1" fill="none" fill-rule="evenodd" sketch:type="MSPage">
        <g id="Imported-Layers" sketch:type="MSLayerGroup" transform="translate(1.000000, 1.000000)">
            <path d="M40.724,16.64 C43.1453333,15.6306667 45.6933333,15.1146667 48.2973333,15.1146667 C54.5213333,15.1146667 60.2866667,18.016 64,22.9373333 C64.052,22.828 64.1146667,22.708 64.1613333,22.5986667 C67.656,14.0826667 63.6306667,4.32266667 55.1666667,0.806666667 C46.7026667,-2.71333333 37.0106667,1.344 33.516,9.86 C33.1933333,10.6453333 32.9213333,11.6826667 32.6973333,12.9066667 C32.4693333,11.672 32.1973333,10.636 31.8693333,9.844 C28.36,1.33333333 18.656,-2.70266667 10.1973333,0.833333333 C1.73466667,4.37466667 -2.27066667,14.14 1.24533333,22.6506667 C4.70266667,31.0266667 32.7546667,55.4946667 32.7546667,55.4946667 C32.7546667,55.4946667 34.3493333,54.0986667 36.812,51.8693333 C33.5733333,48.2186667 31.0413333,44.9066667 30.0786667,42.5733333 C25.9013333,32.4693333 30.6826667,20.8386667 40.724,16.64 L40.724,16.64 Z" id="Fill-1" fill="#000000" sketch:type="MSShapeGroup"></path>
            <path d="M86.9066667,19.5266667 C78.4426667,16.0053333 68.7493333,20.0626667 65.2546667,28.5786667 C64.932,29.364 64.6613333,30.4013333 64.4373333,31.6253333 C64.208,30.3906667 63.9373333,29.3546667 63.6093333,28.5626667 C60.0986667,20.052 50.396,16.016 41.9373333,19.552 C33.4786667,23.088 29.4733333,32.8546667 32.984,41.364 C36.448,49.74 64.5,74.208 64.5,74.208 C64.5,74.208 92.464,49.708 95.9066667,41.3173333 C99.4013333,32.8026667 95.3746667,23.0413333 86.9066667,19.5266667 L86.9066667,19.5266667 Z" id="Fill-2" fill="#E93A4F" sketch:type="MSShapeGroup"></path>
        </g>
    </g>
</svg>