<?xml version="1.0" encoding="UTF-8" standalone="no"?>
<svg width="75px" height="75px" viewBox="0 0 75 75" version="1.1" xmlns="http://www.w3.org/2000/svg" xmlns:xlink="http://www.w3.org/1999/xlink" xmlns:sketch="http://www.bohemiancoding.com/sketch/ns">
    <!-- Generator: Sketch 3.1 (8751) - http://www.bohemiancoding.com/sketch -->
    <title>Imported Layers</title>
    <desc>Created with Sketch.</desc>
    <defs></defs>
    <g id="Page-1" stroke="none" stroke-width="1" fill="none" fill-rule="evenodd" sketch:type="MSPage">
        <g id="Imported-Layers" sketch:type="MSLayerGroup" fill="#000000">
            <path d="M24.332,34.504 L29.41,49.859 L45.582,49.859 L50.664,34.465 L37.535,24.859 L24.332,34.504 Z" id="Fill-1" sketch:type="MSShapeGroup"></path>
            <path d="M37.5,0 C16.789,0 0,16.789 0,37.5 C0,58.211 16.789,75 37.5,75 C58.211,75 75,58.211 75,37.5 C75,16.789 58.211,0 37.5,0 L37.5,0 Z M66.586,49.785 C65.621,52.062 64.406,54.199 62.953,56.176 L62.594,52.848 L50.723,55.5 L44.465,65.957 L47.629,67.41 C44.383,68.512 40.984,69.07 37.496,69.07 C34.023,69.07 30.637,68.516 27.402,67.426 L30.594,65.961 L24.336,55.504 L12.465,52.852 L12.098,56.266 C10.617,54.266 9.383,52.102 8.406,49.797 C6.77,45.895 5.934,41.766 5.934,37.5 C5.934,37.418 5.938,37.336 5.938,37.254 L8.227,39.59 L16.164,30.453 L15.055,18.332 L11.977,18.922 C12.941,17.602 14.008,16.352 15.18,15.18 C18.082,12.277 21.457,10.004 25.215,8.414 C26.07,8.051 26.938,7.734 27.812,7.449 L26.348,10.129 L37.535,14.953 L48.688,10.129 L47.066,7.41 C47.984,7.703 48.895,8.035 49.785,8.414 C53.543,10.004 56.922,12.281 59.82,15.18 C60.988,16.348 62.051,17.594 63.012,18.906 L60,18.332 L58.891,30.453 L66.828,39.59 L69.059,37.312 C69.059,37.375 69.062,37.438 69.062,37.5 C69.066,41.766 68.234,45.898 66.586,49.785 L66.586,49.785 Z" id="Fill-2" sketch:type="MSShapeGroup"></path>
        </g>
    </g>
</svg>