<?xml version="1.0" encoding="UTF-8" standalone="no"?>
<svg width="100px" height="100px" viewBox="0 0 100 100" version="1.1" xmlns="http://www.w3.org/2000/svg" xmlns:xlink="http://www.w3.org/1999/xlink" xmlns:sketch="http://www.bohemiancoding.com/sketch/ns">
    <!-- Generator: Sketch 3.1 (8751) - http://www.bohemiancoding.com/sketch -->
    <title>Imported Layers</title>
    <desc>Created with Sketch.</desc>
    <defs></defs>
    <g id="Page-1" stroke="none" stroke-width="1" fill="none" fill-rule="evenodd" sketch:type="MSPage">
        <g id="Imported-Layers" sketch:type="MSLayerGroup">
            <path d="M98.172,33.0826667 L66.9213333,1.83333333 C65.3693333,0.281333333 63.1253333,-0.338666667 60.9946667,0.182666667 C59.8746667,0.458666667 58.8693333,1.036 58.0786667,1.828 C57.3693333,2.536 56.8333333,3.416 56.5266667,4.396 C55.1093333,8.984 52.6613333,12.9786667 49.0413333,16.5933333 C44.208,21.432 37.9066667,25.0986667 31.24,28.9693333 C24.1666667,33.068 16.8546667,37.3173333 10.864,43.3066667 C5.776,48.4066667 2.30666667,54.0733333 0.276,60.656 C-0.406666667,62.88 0.188,65.2813333 1.828,66.9266667 L33.0786667,98.1773333 C34.6306667,99.7293333 36.8746667,100.349333 39.0053333,99.8226667 C40.1253333,99.5413333 41.1306667,98.9693333 41.9213333,98.1773333 C42.6306667,97.4693333 43.1666667,96.588 43.4733333,95.604 C44.8906667,91.016 47.3386667,87.0213333 50.964,83.4066667 C55.7973333,78.5733333 62.0933333,74.9173333 68.7653333,71.0466667 C75.8333333,66.9426667 83.1453333,62.6933333 89.136,56.7026667 C94.224,51.6146667 97.6933333,45.9373333 99.724,39.3546667 C100.406667,37.1306667 99.8066667,34.7133333 98.172,33.0826667 L98.172,33.0826667 Z M37.5,93.7493333 C27.1506667,83.4013333 16.5986667,72.8493333 6.25066667,62.5 C15.1306667,33.7453333 53.6253333,35.0053333 62.5,6.25066667 C72.8493333,16.5986667 83.4013333,27.1506667 93.7546667,37.5 C84.8693333,66.2453333 46.38,64.9946667 37.5,93.7493333 L37.5,93.7493333 Z" id="Fill-1" fill="#000000" sketch:type="MSShapeGroup"></path>
            <path d="M61.1306667,46.5626667 C60.1093333,45.708 59.088,45.1306667 58.0573333,44.8386667 C57.0306667,44.552 56.0053333,44.4373333 54.9693333,44.5106667 C53.9426667,44.588 52.896,44.8226667 51.844,45.224 C50.792,45.636 49.74,46.0786667 48.6773333,46.5933333 C47,44.6666667 45.3226667,42.76 43.64,40.9893333 C44.396,40.3066667 45.1306667,39.9586667 45.8386667,39.932 C46.5466667,39.9013333 47.2293333,39.9733333 47.8746667,40.14 C48.536,40.3066667 49.136,40.448 49.6933333,40.5573333 C50.2546667,40.6666667 50.7453333,40.5466667 51.172,40.188 C51.6253333,39.7973333 51.8746667,39.292 51.912,38.6826667 C51.9426667,38.068 51.7133333,37.4693333 51.1973333,36.88 C50.536,36.1253333 49.7453333,35.6666667 48.792,35.4946667 C47.8493333,35.328 46.8906667,35.344 45.8853333,35.5626667 C44.896,35.7866667 43.9586667,36.1613333 43.068,36.6826667 C42.1773333,37.208 41.464,37.7453333 40.932,38.2706667 C40.7293333,38.0786667 40.5266667,37.8853333 40.3226667,37.6973333 C40.0986667,37.4893333 39.8173333,37.38 39.4786667,37.3853333 C39.14,37.3853333 38.86,37.5306667 38.6253333,37.8026667 C38.4013333,38.0626667 38.2973333,38.3693333 38.3386667,38.6933333 C38.3693333,39.0266667 38.5053333,39.2813333 38.7346667,39.4786667 C38.9373333,39.6506667 39.14,39.8173333 39.344,40 C38.5413333,40.964 37.8853333,42.0306667 37.364,43.156 C36.8386667,44.2866667 36.5266667,45.4013333 36.412,46.4893333 C36.292,47.584 36.4066667,48.584 36.74,49.5106667 C37.0733333,50.4426667 37.6933333,51.24 38.5933333,51.9893333 C40.068,53.2133333 41.7973333,53.7293333 43.8066667,53.6146667 C45.812,53.4946667 47.9693333,52.896 50.292,51.6506667 C52.136,53.7813333 53.984,55.896 55.8333333,57.864 C55.052,58.5266667 54.3693333,58.9013333 53.7653333,59.0266667 C53.1613333,59.156 52.6253333,59.14 52.136,58.9946667 C51.6453333,58.844 51.1933333,58.6253333 50.7813333,58.344 C50.364,58.0573333 49.9586667,57.812 49.5466667,57.6146667 C49.1453333,57.416 48.7293333,57.3026667 48.3026667,57.2973333 C47.8746667,57.292 47.4213333,57.4946667 46.9213333,57.9266667 C46.412,58.3746667 46.1506667,58.8906667 46.1506667,59.4786667 C46.1506667,60.0626667 46.4213333,60.6506667 46.9426667,61.2506667 C47.4733333,61.8493333 48.1666667,62.3493333 49,62.7453333 C49.8333333,63.14 50.776,63.3906667 51.8173333,63.4586667 C52.8546667,63.5306667 53.948,63.3746667 55.104,62.948 C56.2653333,62.5266667 57.412,61.7653333 58.5413333,60.6306667 C59.0826667,61.1613333 59.636,61.6666667 60.1826667,62.156 C60.412,62.3546667 60.6933333,62.4586667 61.036,62.432 C61.364,62.4213333 61.6506667,62.2653333 61.88,61.9893333 C62.1093333,61.708 62.208,61.4013333 62.172,61.0733333 C62.14,60.7453333 62.0053333,60.4893333 61.7813333,60.312 C61.2293333,59.8693333 60.6826667,59.412 60.136,58.9213333 C61.068,57.776 61.8173333,56.568 62.3746667,55.3693333 C62.932,54.1666667 63.26,53.0053333 63.3693333,51.932 C63.4786667,50.8493333 63.3493333,49.8746667 63,48.9893333 C62.6453333,48.0733333 62.0213333,47.3026667 61.1306667,46.5626667 L61.1306667,46.5626667 Z M43.6613333,48.6826667 C42.776,48.7186667 42.0053333,48.4266667 41.328,47.7706667 C41.0413333,47.4946667 40.8386667,47.1613333 40.7186667,46.7653333 C40.588,46.3693333 40.5466667,45.932 40.5986667,45.4586667 C40.64,44.9893333 40.7813333,44.5 41.0266667,44.0053333 C41.2546667,43.5106667 41.5986667,43.016 42.036,42.5413333 C43.62,44.1146667 45.2026667,45.844 46.7866667,47.6306667 C45.588,48.292 44.5413333,48.6453333 43.6613333,48.6826667 L43.6613333,48.6826667 Z M58.4013333,54.9373333 C58.12,55.4586667 57.7973333,55.9173333 57.4213333,56.3226667 C55.6666667,54.552 53.9173333,52.6093333 52.172,50.6146667 C52.62,50.416 53.088,50.2026667 53.5933333,49.9946667 C54.0986667,49.7813333 54.604,49.64 55.1146667,49.552 C55.636,49.4733333 56.1453333,49.4946667 56.656,49.62 C57.1613333,49.7493333 57.6453333,50.0213333 58.088,50.4586667 C58.5306667,50.9013333 58.8066667,51.3546667 58.9213333,51.8493333 C59.0413333,52.3493333 59.052,52.8546667 58.964,53.3746667 C58.8693333,53.896 58.688,54.412 58.4013333,54.9373333 L58.4013333,54.9373333 Z" id="Fill-2" fill="#7ED321" sketch:type="MSShapeGroup"></path>
            <path d="M45.9893333,69.312 L45.984,69.312 C44.0306667,70.812 42.1253333,72.396 40.36,74.1666667 C38.6613333,75.864 37.1306667,77.6506667 35.792,79.4733333 L33.656,82.3906667 L33.6613333,82.396 C33.2706667,83.0053333 33.3386667,83.8226667 33.8693333,84.3546667 C34.4786667,84.964 35.4733333,84.964 36.088,84.3546667 C36.1826667,84.2546667 36.2546667,84.156 36.3173333,84.0413333 L38.312,81.3066667 C39.552,79.6146667 40.9786667,77.9533333 42.568,76.3693333 C44.3226667,74.6146667 45.948,73.2653333 47.9213333,71.76 L47.9173333,71.7546667 C47.9733333,71.7133333 48.0266667,71.6773333 48.0786667,71.6253333 C48.6933333,71.016 48.6933333,70.0213333 48.0786667,69.412 C47.5106667,68.8386667 46.604,68.8173333 45.9893333,69.312 L45.9893333,69.312 Z" id="Fill-3" fill="#000000" sketch:type="MSShapeGroup"></path>
            <path d="M57.432,24.1093333 C55.7973333,25.7453333 54.0266667,27.2133333 52.188,28.62 C52.0573333,28.6933333 51.932,28.7706667 51.8226667,28.8906667 C51.208,29.5053333 51.208,30.5106667 51.8226667,31.1253333 C52.4213333,31.7293333 53.3853333,31.74 54.0053333,31.1666667 L54.016,31.172 C55.9693333,29.672 57.8693333,28.0826667 59.636,26.3173333 C61.3333333,24.62 62.864,22.8386667 64.2026667,21.016 L66.3386667,18.0826667 L66.3333333,18.0786667 C66.864,17.4586667 66.8386667,16.5266667 66.2546667,15.9426667 C65.64,15.328 64.64,15.328 64.0266667,15.9426667 C63.912,16.0573333 63.828,16.1933333 63.7493333,16.328 L61.6773333,19.172 C60.4426667,20.8693333 59.0106667,22.5266667 57.432,24.1093333 L57.432,24.1093333 Z" id="Fill-4" fill="#000000" sketch:type="MSShapeGroup"></path>
        </g>
    </g>
</svg>