<?xml version="1.0" encoding="UTF-8" standalone="no"?>
<svg width="100px" height="100px" viewBox="0 0 100 100" version="1.1" xmlns="http://www.w3.org/2000/svg" xmlns:xlink="http://www.w3.org/1999/xlink" xmlns:sketch="http://www.bohemiancoding.com/sketch/ns">
    <!-- Generator: Sketch 3.1 (8751) - http://www.bohemiancoding.com/sketch -->
    <title>Imported Layers</title>
    <desc>Created with Sketch.</desc>
    <defs></defs>
    <g id="Page-1" stroke="none" stroke-width="1" fill="none" fill-rule="evenodd" sketch:type="MSPage">
        <g id="Imported-Layers" sketch:type="MSLayerGroup">
            <path d="M32.4426667,46.0053333 L39.2133333,66.4786667 L60.776,66.4786667 L67.552,45.9533333 L50.0466667,33.1453333 L32.4426667,46.0053333 Z" id="Fill-1" fill="#9DE0FF" sketch:type="MSShapeGroup"></path>
            <path d="M50,0 C22.3853333,0 0,22.3853333 0,50 C0,77.6146667 22.3853333,100 50,100 C77.6146667,100 100,77.6146667 100,50 C100,22.3853333 77.6146667,0 50,0 L50,0 Z M83.9373333,74.9013333 L83.4586667,70.464 L67.6306667,74 L59.2866667,87.9426667 L63.5053333,89.88 C59.1773333,91.3493333 54.6453333,92.0933333 49.9946667,92.0933333 C45.364,92.0933333 40.8493333,91.3546667 36.536,89.9013333 L40.792,87.948 L32.448,74.0053333 L16.62,70.4693333 L16.1306667,75.0213333 C14.156,72.3546667 12.5106667,69.4693333 11.208,66.396 C9.02666667,61.1933333 7.912,55.688 7.912,50 C7.912,49.8906667 7.91733333,49.7813333 7.91733333,49.672 L10.9693333,52.7866667 L21.552,40.604 L20.0733333,24.4426667 L15.9693333,25.2293333 C17.2546667,23.4693333 18.6773333,21.8026667 20.24,20.24 C24.1093333,16.3693333 28.6093333,13.3386667 33.62,11.2186667 C34.76,10.7346667 35.9173333,10.312 37.0826667,9.932 L35.1306667,13.5053333 L50.0466667,19.9373333 L64.9173333,13.5053333 L62.7546667,9.88 C63.9786667,10.2706667 65.1933333,10.7133333 66.38,11.2186667 C71.3906667,13.3386667 75.896,16.3746667 79.76,20.24 C81.3173333,21.7973333 82.7346667,23.4586667 84.016,25.208 L80,24.4426667 C80,24.4426667 79.5075109,29.8254077 79.2612664,32.5167783 C79.0146221,35.2125188 78.5213333,40.604 78.5213333,40.604 L89.104,52.7866667 L92.0786667,49.7493333 C92.0786667,49.8333333 92.0826667,49.9173333 92.0826667,50 C92.088,55.688 90.9786667,61.1973333 88.7813333,66.38 C86.3593333,70.6406667 85.8746667,72.2653333 83.9373333,74.9013333 Z" id="Fill-2" fill="#000000" sketch:type="MSShapeGroup"></path>
        </g>
    </g>
</svg>