<?xml version="1.0" encoding="UTF-8" standalone="no"?>
<svg width="76px" height="100px" viewBox="0 0 76 100" version="1.1" xmlns="http://www.w3.org/2000/svg" xmlns:xlink="http://www.w3.org/1999/xlink" xmlns:sketch="http://www.bohemiancoding.com/sketch/ns">
    <!-- Generator: Sketch 3.1 (8751) - http://www.bohemiancoding.com/sketch -->
    <title>Imported Layers</title>
    <desc>Created with Sketch.</desc>
    <defs></defs>
    <g id="Page-1" stroke="none" stroke-width="1" fill="none" fill-rule="evenodd" sketch:type="MSPage">
        <g id="Imported-Layers" sketch:type="MSLayerGroup">
            <path d="M32.552,41.9066667 C33.5413333,41.64 34.1253333,40.6306667 33.86,39.6453333 C33.5933333,38.656 32.584,38.0786667 31.5986667,38.3386667 C30.6093333,38.604 30.0266667,39.6146667 30.292,40.5986667 C30.552,41.584 31.568,42.172 32.552,41.9066667 L32.552,41.9066667 Z" id="Fill-1" fill="#000000" sketch:type="MSShapeGroup"></path>
            <path d="M43.448,41.9066667 C44.432,42.172 45.448,41.584 45.708,40.5986667 C45.9733333,39.6146667 45.3853333,38.5986667 44.4013333,38.3386667 C43.416,38.0786667 42.4013333,38.656 42.136,39.64 C41.8746667,40.6253333 42.4586667,41.64 43.448,41.9066667 L43.448,41.9066667 Z" id="Fill-2" fill="#000000" sketch:type="MSShapeGroup"></path>
            <path d="M52.8746667,44.7346667 C52.156,45.4586667 52.156,46.6253333 52.8746667,47.3493333 C53.5986667,48.0733333 54.7653333,48.0733333 55.4893333,47.3493333 C56.2026667,46.6253333 56.2026667,45.464 55.4893333,44.7346667 C54.7706667,44.0106667 53.5986667,44.0106667 52.8746667,44.7346667 L52.8746667,44.7346667 Z" id="Fill-3" fill="#000000" sketch:type="MSShapeGroup"></path>
            <path d="M60.584,58.088 C61.5733333,57.828 62.156,56.8066667 61.8906667,55.828 C61.6306667,54.844 60.62,54.2546667 59.6306667,54.516 C58.64,54.7813333 58.0626667,55.792 58.3173333,56.7813333 C58.588,57.7706667 59.5986667,58.3493333 60.584,58.088 L60.584,58.088 Z" id="Fill-4" fill="#000000" sketch:type="MSShapeGroup"></path>
            <path d="M60.588,66.364 C59.604,66.104 58.5933333,66.688 58.3226667,67.672 C58.0626667,68.6613333 58.6453333,69.672 59.636,69.9373333 C60.62,70.2026667 61.6306667,69.62 61.896,68.6253333 C62.156,67.6453333 61.5733333,66.6306667 60.588,66.364 L60.588,66.364 Z" id="Fill-5" fill="#000000" sketch:type="MSShapeGroup"></path>
            <path d="M52.8746667,77.1093333 C52.156,77.828 52.156,79 52.8746667,79.7186667 C53.5986667,80.4426667 54.7653333,80.4426667 55.4893333,79.7186667 C56.2026667,79 56.2026667,77.8226667 55.4893333,77.1093333 C54.7706667,76.3853333 53.5986667,76.3853333 52.8746667,77.1093333 L52.8746667,77.1093333 Z" id="Fill-6" fill="#000000" sketch:type="MSShapeGroup"></path>
            <path d="M43.448,82.552 C42.464,82.812 41.88,83.828 42.14,84.812 C42.4066667,85.8026667 43.412,86.38 44.4066667,86.1253333 C45.3906667,85.864 45.9786667,84.8493333 45.7133333,83.86 C45.4426667,82.8746667 44.432,82.2866667 43.448,82.552 L43.448,82.552 Z" id="Fill-7" fill="#000000" sketch:type="MSShapeGroup"></path>
            <path d="M32.552,82.552 C31.568,82.2866667 30.5573333,82.8693333 30.292,83.86 C30.0266667,84.8493333 30.6093333,85.86 31.5986667,86.1253333 C32.5786667,86.3853333 33.5933333,85.8026667 33.86,84.812 C34.1253333,83.828 33.5413333,82.812 32.552,82.552 L32.552,82.552 Z" id="Fill-8" fill="#000000" sketch:type="MSShapeGroup"></path>
            <path d="M20.5106667,77.1093333 C19.7866667,77.828 19.7866667,79 20.5106667,79.7186667 C21.2293333,80.4426667 22.4013333,80.4426667 23.1253333,79.7186667 C23.844,79 23.844,77.8226667 23.1253333,77.1093333 C22.396,76.3853333 21.2293333,76.3853333 20.5106667,77.1093333 L20.5106667,77.1093333 Z" id="Fill-9" fill="#000000" sketch:type="MSShapeGroup"></path>
            <path d="M15.416,66.3693333 C14.432,66.6306667 13.844,67.64 14.1093333,68.6306667 C14.3746667,69.62 15.3853333,70.1973333 16.3746667,69.9426667 C17.36,69.6773333 17.9426667,68.6666667 17.6826667,67.6773333 C17.412,66.688 16.4013333,66.104 15.416,66.3693333 L15.416,66.3693333 Z" id="Fill-10" fill="#000000" sketch:type="MSShapeGroup"></path>
            <path d="M15.416,58.088 C16.4013333,58.3493333 17.412,57.7706667 17.6826667,56.7813333 C17.9426667,55.792 17.36,54.7813333 16.3746667,54.516 C15.3906667,54.2546667 14.3746667,54.8386667 14.1093333,55.828 C13.8386667,56.8066667 14.4266667,57.828 15.416,58.088 L15.416,58.088 Z" id="Fill-11" fill="#000000" sketch:type="MSShapeGroup"></path>
            <path d="M41.5306667,58.6973333 C41.3066667,58.4786667 41.0733333,58.292 40.8226667,58.1253333 L40.844,58.0933333 L23.12,44.7346667 C22.396,44.0106667 21.2293333,44.0106667 20.5053333,44.7346667 C19.7813333,45.4586667 19.7813333,46.6253333 20.5053333,47.3493333 L33.8693333,65.0733333 L33.896,65.0466667 C34.068,65.2973333 34.2546667,65.5306667 34.4733333,65.7546667 C36.4213333,67.7026667 39.584,67.7026667 41.536,65.7546667 C43.4733333,63.8066667 43.4733333,60.6453333 41.5306667,58.6973333 L41.5306667,58.6973333 Z" id="Fill-12" fill="#F6C023" sketch:type="MSShapeGroup"></path>
            <path d="M66.9373333,37.948 L68.7973333,36.0826667 L69.4426667,36.7293333 C69.984,37.2706667 70.86,37.2706667 71.396,36.7293333 L73.8386667,34.292 C74.3746667,33.7493333 74.3746667,32.8746667 73.8386667,32.3386667 L68.016,26.516 L68.0106667,26.516 C67.4733333,25.9733333 66.5986667,25.9733333 66.0573333,26.516 L63.62,28.9533333 C63.0786667,29.4946667 63.0786667,30.364 63.62,30.9066667 L64.2546667,31.536 L62.4013333,33.3906667 C58.0306667,29.6933333 52.812,26.964 47.0786667,25.552 C50.3226667,22.9173333 52.396,18.9013333 52.396,14.3906667 C52.3906667,6.44266667 45.948,0 38,0 C30.052,0 23.6093333,6.44266667 23.6093333,14.3906667 C23.6093333,18.9013333 25.688,22.9173333 28.9266667,25.552 C23.1973333,26.964 17.9786667,29.6933333 13.6093333,33.3906667 L11.7546667,31.536 L12.3853333,30.9066667 C12.9213333,30.364 12.9213333,29.4946667 12.3853333,28.9533333 L9.94266667,26.516 C9.40666667,25.9733333 8.53066667,25.9733333 7.99466667,26.516 L2.18266667,32.328 L2.16666667,32.3386667 C1.62,32.8746667 1.62,33.7493333 2.16666667,34.292 L4.59866667,36.7293333 C5.14,37.2706667 6.016,37.2706667 6.552,36.7293333 L7.20266667,36.0826667 L9.068,37.948 C3.552,44.516 0.229333333,52.984 0.229333333,62.224 C0.229333333,83.088 17.136,100 38,100 C58.86,100 75.776,83.088 75.776,62.224 C75.7706667,52.984 72.4533333,44.516 66.9373333,37.948 L66.9373333,37.948 Z M28.3226667,14.3906667 C28.3226667,9.04666667 32.656,4.71866667 37.9946667,4.71866667 C43.3386667,4.71866667 47.672,9.052 47.672,14.3906667 C47.672,18.5786667 45.0053333,22.14 41.292,23.4893333 L41.292,17.3066667 L42.2026667,17.3066667 C42.964,17.3066667 43.584,16.688 43.584,15.9266667 L43.584,12.4786667 C43.584,11.7133333 42.964,11.0986667 42.2026667,11.0986667 L33.964,11.0986667 C33.2026667,11.0986667 32.584,11.7186667 32.584,12.4786667 L32.584,15.9266667 C32.584,16.688 33.2026667,17.3066667 33.964,17.3066667 L34.8546667,17.3066667 L34.8546667,23.5413333 C31.0573333,22.24 28.3226667,18.636 28.3226667,14.3906667 L28.3226667,14.3906667 Z M38,90.776 C22.2813333,90.776 9.54133333,78.0306667 9.54133333,62.312 C9.54133333,46.5986667 22.2813333,33.8546667 38,33.8546667 C53.7133333,33.8546667 66.4586667,46.5986667 66.4586667,62.312 C66.4586667,78.036 53.7133333,90.776 38,90.776 L38,90.776 Z" id="Fill-13" fill="#000000" sketch:type="MSShapeGroup"></path>
        </g>
    </g>
</svg>